<svg width="1280" height="870" xmlns="http://www.w3.org/2000/svg" preserveAspectRatio="xMidYMid meet">
 <metadata>Created by potrace 1.15, written by Peter Selinger 2001-2017</metadata>

 <g>
  <title>background</title>
  <rect fill="none" id="canvas_background" height="602" width="802" y="-1" x="-1"/>
 </g>
 <g>
  <title>Layer 1</title>
  <g id="svg_1" fill="#000000" transform="translate(0,870) scale(0.10000000149011612,-0.10000000149011612)">
   <path stroke="#006858" stroke-width="10" fill="#006858" fill-opacity="0.2" id="svg_2" d="m8421,8538c-24,-90 -50,-184 -58,-209l-13,-46l-63,-7c-34,-4 -92,-14 -129,-22c-37,-9 -72,-13 -77,-10c-5,4 -60,79 -121,169c-62,89 -116,166 -120,170c-5,6 -263,-103 -277,-117c-2,-1 22,-96 53,-210c30,-115 54,-209 52,-210c-26,-19 -134,-105 -167,-134l-45,-39l-193,93l-193,93l-85,-120c-47,-66 -85,-123 -85,-127c0,-4 68,-74 150,-157l150,-150l-33,-80c-19,-44 -39,-101 -46,-127c-15,-55 -2,-51 -231,-68c-74,-6 -154,-13 -176,-16l-41,-5l-13,-144c-7,-80 -11,-148 -7,-151c3,-3 93,-30 200,-59c107,-29 200,-55 206,-59c6,-4 11,-24 11,-44c0,-20 9,-77 19,-127c10,-49 17,-93 15,-97c-3,-4 -81,-60 -174,-124c-94,-64 -170,-121 -170,-126c0,-11 109,-250 118,-260c6,-6 306,66 398,96c17,5 30,-6 77,-66c30,-40 69,-86 86,-102c17,-17 31,-33 31,-37c0,-4 -41,-94 -90,-199c-50,-106 -90,-194 -88,-195c25,-22 235,-165 243,-165c6,0 77,67 159,149l149,149l51,-23c28,-12 83,-32 121,-45c39,-12 73,-26 78,-29c4,-4 14,-99 23,-212c9,-112 19,-207 23,-211c3,-4 71,-13 150,-20c117,-11 144,-12 148,-1c3,7 29,100 58,206l52,192l34,7c19,4 80,15 137,25l102,19l123,-177c118,-170 123,-176 147,-165c14,6 75,34 137,63l112,52l-50,188c-27,103 -52,197 -55,209c-4,17 5,29 48,59c29,21 76,61 105,88l52,49l196,-92c107,-51 197,-91 199,-89c14,16 158,223 161,232c2,7 -63,82 -144,167c-132,137 -148,157 -138,175c6,11 27,67 48,125l37,105l123,11c68,7 165,15 215,19l91,7l12,121c6,67 11,136 11,152l0,30l-205,55c-177,47 -206,57 -209,75c-2,11 -11,65 -19,120c-9,55 -18,107 -22,115c-4,11 44,49 174,139l179,123l-62,134c-38,83 -67,133 -76,134c-8,0 -99,-23 -202,-50c-191,-51 -218,-56 -218,-42c0,5 -36,52 -80,106l-81,97l86,182c48,100 89,187 92,193c2,7 -51,51 -119,98l-122,86l-152,-151l-152,-152l-89,36c-48,19 -107,40 -129,46c-48,13 -43,-7 -65,283l-12,157l-41,6c-40,5 -241,25 -255,25c-3,0 -26,-73 -50,-162zm189,-593c390,-59 719,-334 845,-706c37,-109 55,-219 55,-344c0,-246 -78,-469 -230,-658c-147,-183 -337,-307 -566,-368c-114,-31 -348,-38 -464,-14c-403,82 -717,373 -825,766c-36,128 -45,334 -21,462c43,226 147,418 314,579c240,231 563,334 892,283z"/>
   <path stroke="#006858" stroke-width="10" fill="#006858" fill-opacity="0.2" id="svg_3" d="m2476,7633c-3,-10 -39,-132 -81,-272c-41,-139 -75,-254 -75,-256c0,-1 -33,-5 -72,-9c-40,-4 -122,-17 -183,-30c-60,-13 -110,-23 -111,-22c-1,0 -70,100 -154,221c-83,121 -155,224 -159,228c-6,6 -354,-143 -370,-158c-2,-3 27,-126 64,-276c59,-234 66,-273 53,-280c-27,-15 -135,-98 -190,-146c-29,-26 -60,-53 -69,-60c-14,-11 -52,3 -268,102c-138,63 -255,115 -260,115c-7,0 -207,-262 -234,-307c-5,-9 54,-73 192,-208l199,-196l-33,-72c-18,-40 -48,-115 -66,-167c-18,-52 -33,-96 -34,-98c-2,-2 -130,-14 -286,-28c-156,-14 -287,-29 -290,-32c-6,-7 -52,-383 -47,-387c2,-1 127,-33 278,-72l275,-70l7,-74c7,-69 31,-207 44,-255c5,-19 -24,-42 -228,-179c-128,-87 -237,-161 -241,-165c-7,-6 134,-332 152,-352c3,-4 132,26 286,67c153,41 279,74 280,72c15,-24 138,-177 176,-219l51,-57l-128,-251l-129,-252l31,-24c17,-13 90,-65 162,-114l131,-90l207,197c113,109 214,197 223,197c9,-1 50,-16 91,-34c41,-17 111,-42 155,-55l80,-23l6,-50c4,-27 12,-149 19,-270c7,-122 16,-226 20,-232c7,-12 386,-48 396,-38c3,3 27,82 55,174c105,357 108,363 132,368c12,2 62,10 110,16c49,7 120,20 158,30l70,17l68,-96c37,-53 109,-156 160,-229c76,-109 96,-132 112,-127c25,8 340,153 347,159c3,3 -25,124 -62,268c-36,145 -66,266 -66,269c0,4 35,33 78,64c42,32 106,84 142,116l65,57l100,-45c55,-25 171,-79 258,-119l158,-73l120,161l120,162l-199,200l-200,201l39,80c21,44 50,117 65,163c15,45 30,85 34,87c4,2 134,16 290,30c156,14 285,27 286,28c2,3 39,350 39,371c0,17 -36,28 -275,90l-275,71l-12,103c-6,57 -19,135 -27,172c-9,38 -16,71 -16,74c0,2 108,77 240,166c132,88 240,162 240,164c0,1 -36,81 -80,177c-63,139 -83,173 -97,171c-10,-2 -137,-35 -282,-73c-145,-39 -264,-69 -266,-67c-2,2 -23,31 -48,65c-25,33 -76,93 -113,132l-67,72l127,248c69,137 126,253 126,259c0,10 -303,222 -318,222c-8,0 -141,-124 -368,-343l-52,-49l-106,41c-58,23 -135,49 -170,58l-64,17l-5,56c-4,30 -12,153 -18,272c-7,120 -15,222 -19,227c-3,6 -89,17 -190,25c-225,19 -208,20 -214,-1zm285,-981c547,-129 938,-517 1050,-1043c29,-135 32,-369 6,-505c-109,-585 -569,-1045 -1162,-1163c-456,-90 -935,47 -1257,361c-114,111 -197,227 -269,373c-67,137 -101,248 -123,398c-63,424 92,868 415,1187c206,203 491,350 784,405c118,21 440,14 556,-13z"/>
   <path stroke="#006858" stroke-width="10" fill="#006858" fill-opacity="0.2" id="svg_4" d="m6221,6112c-30,-111 -60,-202 -69,-209c-9,-7 -32,-13 -51,-13c-20,0 -75,-8 -124,-18l-87,-18l-121,178c-67,99 -127,177 -133,175c-6,-3 -68,-31 -139,-62c-112,-51 -127,-60 -121,-78c3,-11 28,-105 54,-209l48,-189l-56,-41c-32,-23 -78,-62 -104,-86l-48,-45l-62,28c-35,15 -120,56 -190,91c-70,35 -132,64 -137,64c-5,0 -48,-55 -96,-121l-87,-121l152,-153l152,-152l-28,-64c-14,-35 -37,-93 -49,-129c-20,-59 -25,-65 -51,-68c-16,-1 -111,-8 -211,-15c-101,-8 -185,-16 -187,-18c-4,-4 -36,-292 -32,-296c1,-1 94,-28 208,-59l206,-57l7,-66c3,-36 13,-94 21,-129c8,-35 14,-67 14,-71c0,-4 -79,-61 -175,-126c-96,-65 -175,-123 -175,-127c0,-8 109,-257 117,-267c1,-2 93,19 203,47c109,29 203,52 208,52c5,0 29,-26 53,-57c24,-32 63,-79 86,-104l43,-46l-94,-196l-94,-195l116,-83c63,-46 120,-86 125,-88c5,-2 77,64 161,147l151,151l45,-20c25,-12 81,-34 125,-50c49,-17 82,-35 87,-46c3,-10 12,-107 19,-215c7,-109 15,-198 18,-198c3,0 65,-7 136,-15c72,-8 137,-15 146,-15c11,0 28,47 69,193c29,105 57,200 62,210c6,11 21,17 46,17c20,0 80,9 132,19c52,11 95,18 96,17c0,0 53,-79 118,-174c65,-96 116,-175 114,-177c-2,-2 -67,25 -145,61c-79,35 -144,64 -146,64c-7,0 -167,-238 -167,-247c0,-4 68,-73 151,-152c105,-101 149,-149 145,-160c-3,-9 -23,-68 -45,-131c-30,-85 -45,-116 -58,-118c-10,-1 -105,-11 -211,-21c-107,-11 -195,-21 -197,-23c-6,-6 -27,-289 -22,-294c3,-3 96,-29 208,-57l202,-53l23,-119c12,-66 25,-127 28,-135c4,-11 -43,-50 -169,-139c-96,-68 -175,-128 -175,-132c0,-4 26,-62 59,-127c32,-66 60,-125 62,-131c3,-7 80,11 214,48c115,33 210,59 210,58c2,-9 89,-113 128,-153l49,-52l-90,-198l-90,-198l121,-83c67,-46 124,-83 128,-83c4,0 73,68 154,152c141,144 148,151 174,141c14,-6 71,-26 126,-44c55,-18 101,-34 103,-35c2,-1 13,-98 25,-216l22,-213l65,-6c36,-4 103,-9 150,-13l85,-7l29,113c15,62 40,156 53,210l26,96l78,12c43,6 102,17 131,25c29,7 56,11 60,9c3,-2 62,-81 129,-175c67,-93 125,-168 129,-167c83,33 260,125 260,134c0,8 -25,102 -56,210c-30,108 -54,197 -52,199c2,1 30,24 63,50c33,26 79,66 102,87l41,40l189,-86c103,-47 193,-86 198,-86c6,0 49,55 95,122l84,122l-156,151l-156,150l24,55c13,30 33,87 45,125c11,39 23,72 25,74c2,2 99,13 216,25l213,21l11,145c6,80 9,148 5,152c-3,3 -96,29 -205,57c-110,28 -201,53 -203,55c-2,2 -8,32 -13,67c-6,35 -17,95 -26,132c-9,37 -15,69 -13,71c2,1 81,58 176,125l172,122l-23,52c-66,146 -102,216 -112,217c-6,0 -100,-25 -210,-56l-199,-55l-18,23c-10,13 -49,58 -85,101c-37,43 -68,82 -70,86c-1,4 36,92 83,195c47,103 85,191 85,194c-1,4 -56,44 -123,90l-122,83l-152,-155l-151,-155l-70,29c-39,16 -97,36 -130,45l-59,17l-20,209c-11,115 -23,212 -27,216c-9,10 -284,28 -292,20c-4,-3 -30,-98 -59,-209l-52,-203l-59,-7c-32,-3 -90,-13 -127,-22c-38,-9 -72,-16 -77,-16c-8,0 -250,332 -250,343c0,3 68,-28 151,-69c83,-41 152,-74 154,-74c1,0 42,54 90,120l87,120l-149,157l-149,156l37,91c20,50 40,106 44,124c4,19 12,35 18,37c7,3 104,11 216,20c113,8 206,17 208,18c6,6 34,290 29,295c-3,3 -97,31 -208,62l-203,57l-3,34c-3,36 -28,180 -38,215c-5,17 21,38 175,142l179,122l-60,135c-34,74 -66,135 -73,135c-7,0 -99,-22 -206,-50c-107,-27 -197,-50 -200,-50c-3,0 -20,20 -38,45c-18,25 -57,73 -86,106l-53,61l89,184c49,101 90,189 91,195c3,12 -218,179 -237,179c-5,0 -75,-65 -155,-145c-80,-80 -151,-145 -158,-145c-7,0 -29,8 -50,19c-20,10 -74,31 -118,46l-82,27l-6,62c-3,33 -11,129 -17,211c-6,83 -14,153 -17,156c-7,6 -233,29 -277,29c-17,0 -27,-25 -74,-198zm210,-557c443,-77 791,-430 864,-876c82,-508 -216,-1005 -706,-1172c-531,-183 -1115,86 -1329,610c-82,204 -97,459 -39,673c25,89 92,236 146,317c117,178 337,344 546,413c152,50 357,64 518,35zm840,-2050l30,-16l-133,-65c-73,-36 -134,-67 -135,-68c-1,-1 24,-94 56,-208l58,-207l-76,-60c-42,-33 -89,-73 -105,-90l-28,-30l-44,22c-24,11 -44,23 -44,26c0,4 61,33 135,65c74,32 135,61 135,63c0,3 -22,92 -50,199c-27,107 -50,200 -50,208c0,7 30,36 68,64c37,27 80,64 96,81c34,35 45,37 87,16zm954,-679c176,-52 320,-133 444,-251c244,-232 364,-547 331,-872c-38,-374 -253,-685 -585,-848c-191,-93 -384,-129 -578,-108c-604,69 -1029,606 -946,1199c55,397 332,735 706,860c137,46 195,54 373,50c143,-3 177,-7 255,-30z"/>
   <path stroke="#006858" stroke-width="10" fill="#006858" fill-opacity="0.2" id="svg_5" d="m10930,4412l-53,-210l-76,-12c-42,-6 -102,-18 -135,-26c-32,-8 -59,-14 -61,-12c-1,2 -55,77 -120,168c-64,91 -121,169 -125,173c-11,12 -281,-119 -275,-135c10,-28 114,-402 112,-404c-71,-55 -131,-105 -164,-137l-42,-40l-191,87c-105,47 -194,86 -199,86c-5,0 -46,-55 -91,-121l-83,-122l153,-151l152,-151l-17,-45c-10,-25 -29,-81 -43,-125c-14,-44 -27,-82 -29,-84c-2,-3 -99,-14 -216,-25l-212,-21l-7,-80c-4,-44 -9,-112 -13,-151l-6,-71l210,-53l210,-53l7,-46c6,-43 25,-146 38,-201c5,-23 -9,-35 -170,-149c-96,-68 -174,-127 -172,-131c35,-86 125,-260 135,-260c8,0 102,25 211,56l197,55l25,-32c14,-18 54,-66 89,-107l63,-73l-86,-188c-47,-104 -86,-192 -86,-197c0,-5 55,-47 123,-93l122,-83l151,157c145,151 152,157 175,144c13,-7 71,-29 129,-49l105,-36l20,-205c11,-112 23,-209 27,-215c5,-7 60,-14 135,-18c71,-4 135,-9 144,-12c13,-3 25,34 69,206c47,183 56,211 74,214c12,2 62,11 111,20c50,9 101,18 115,22c24,5 35,-8 145,-162c66,-92 123,-171 126,-176c3,-5 66,21 140,57c101,50 133,70 131,83c-2,9 -28,103 -58,207l-53,190l32,25c17,14 64,53 104,88c40,34 75,62 78,62c3,0 91,-39 196,-86c105,-48 194,-82 198,-78c4,5 43,60 86,123l78,113l-153,153l-153,153l36,99c20,54 40,112 45,128l9,30l211,21c117,12 214,23 216,25c5,6 27,291 23,295c-2,3 -96,28 -210,57l-205,52l-12,77c-6,43 -18,104 -26,135c-8,31 -11,59 -7,63c4,4 80,58 168,120c88,62 164,116 168,120c13,11 -119,281 -135,275c-7,-3 -94,-28 -193,-55c-99,-28 -187,-53 -196,-55c-11,-4 -25,7 -41,32c-14,21 -54,69 -88,106l-62,68l86,189c47,105 86,194 86,199c0,5 -55,46 -121,91l-121,82l-153,-152l-153,-153l-44,18c-23,10 -81,30 -128,45l-85,27l-20,214l-20,214l-85,7c-47,3 -115,9 -151,13l-66,6l-53,-209zm285,-557c232,-48 462,-191 611,-378c75,-94 163,-265 193,-377c102,-378 -4,-770 -283,-1043c-412,-403 -1081,-400 -1486,5c-210,210 -312,454 -314,748c-2,270 81,494 259,704c155,182 413,321 660,355c93,13 261,6 360,-14z"/>
  </g>
 </g>
</svg>